<?xml version="1.0" standalone="no"?>
<!DOCTYPE svg PUBLIC "-//W3C//DTD SVG 1.1//EN" "http://www.w3.org/Graphics/SVG/1.1/DTD/svg11.dtd" >
<svg xmlns="http://www.w3.org/2000/svg">
<metadata></metadata>
<defs>
<font id="orator_fsregular" horiz-adv-x="488" >
<font-face units-per-em="1000" ascent="750" descent="-250" />
<missing-glyph horiz-adv-x="500" />
<glyph />
<glyph />
<glyph unicode="&#xd;" />
<glyph unicode=" " />
<glyph unicode="!" d="M206 207l-13 460h102l-24 -460h-65zM193 0v141h92v-141h-92z" />
<glyph unicode="&#x22;" d="M286 400l-6 267h50l-6 -267h-38zM164 400l-6 267h50l-6 -267h-38z" />
<glyph unicode="#" d="M214 -86l152 829h68l-52 -287h122l-12 -63h-121l-22 -116h122l-11 -63h-122l-56 -300h-68zM51 -86l55 300h-122l13 63h121l21 116h-122l12 63h122l53 287h68l-153 -829h-68z" />
<glyph unicode="$" d="M61 173l56 40q28 -42 44.5 -56t45.5 -20v181q-60 17 -92 53t-32 88q0 50 34 86.5t90 47.5v87h70v-87q80 -10 141 -87l-50 -43q-34 39 -50 50.5t-41 15.5v-163q151 -29 151 -150q0 -58 -41 -96.5t-110 -45.5v-87h-70v87q-85 7 -146 99zM207 385v146q-23 -8 -37 -27.5 t-14 -46.5q0 -50 51 -72zM277 137q35 4 56.5 25t21.5 52q0 69 -78 84v-161z" />
<glyph unicode="%" d="M26 23l331 580q-24 -8 -46 -8q-26 0 -53 10q9 -29 9 -54q0 -56 -30 -91t-79 -35t-79 35t-30 91q0 55 30.5 90t78.5 35q31 0 55 -14q58 -17 96 -17q67 0 117 30l37 -20l-377 -664zM158 477q49 0 49 74q0 35 -13 54t-36 19t-36 -19t-13 -54q0 -74 49 -74zM219 116 q0 55 30.5 90t78.5 35q49 0 79 -34.5t30 -90.5t-30 -90.5t-79 -34.5q-48 0 -78.5 35t-30.5 90zM279 116q0 -35 13 -54t36 -19t36 19t13 54t-13 54t-36 19t-36 -19t-13 -54z" />
<glyph unicode="&#x26;" d="M374 -14l-36 49q-60 -45 -121 -45q-67 0 -112 44t-45 109q0 41 20 71t74 70l-33 45q-32 43 -32 97q0 61 36.5 98.5t95.5 37.5q56 0 93.5 -39t37.5 -97q0 -49 -21.5 -80t-86.5 -76l98 -133q22 37 29 98l66 -12q-11 -82 -53 -143l41 -57zM208 319l42 31q40 30 40 73 q0 35 -19.5 57t-50.5 22q-30 0 -48 -20t-18 -52q0 -37 26 -73zM301 87l-109 149q-37 -26 -49.5 -45t-12.5 -47q0 -40 25.5 -65.5t66.5 -25.5q44 0 79 34z" />
<glyph unicode="'" d="M225 400l-6 267h50l-6 -267h-38z" />
<glyph unicode="(" d="M307 -17q-74 69 -114.5 169t-40.5 215t40.5 215t114.5 168l40 -40q-125 -134 -125 -343q0 -211 125 -343z" />
<glyph unicode=")" d="M142 24q66 73 95.5 154.5t29.5 188.5t-29.5 188.5t-95.5 154.5l40 40q74 -68 114.5 -168t40.5 -215t-40.5 -215t-114.5 -169z" />
<glyph unicode="*" d="M192 364l-68 48l63 73l-100 -9v88l100 -10l-63 74l68 49l52 -95l52 95l68 -49l-63 -74l100 10v-88l-100 9l63 -73l-68 -48l-52 94zM244 492q11 0 19.5 8.5t8.5 19.5t-8.5 19.5t-19.5 8.5q-12 0 -20 -8t-8 -20t8 -20t20 -8z" />
<glyph unicode="+" d="M214 114v190h-188v59h188v190h60v-190h188v-59h-188v-190h-60z" />
<glyph unicode="," d="M160 -9q31 21 40 44t9 81v32h92v-32q0 -113 -111 -175z" />
<glyph unicode="-" d="M133 227v67h222v-67h-222z" />
<glyph unicode="." d="M198 0v148h92v-148h-92z" />
<glyph unicode="/" d="M17 11l368 676l59 -33l-369 -675z" />
<glyph unicode="0" d="M86 85q-28 61 -28 248q0 128 9 184q13 75 59.5 117t117.5 42q52 0 95.5 -26t62.5 -68q28 -60 28 -249q0 -187 -28 -248q-19 -42 -62.5 -68t-95.5 -26t-95.5 26t-62.5 68zM152 108q11 -24 36.5 -39t55.5 -15t55.5 15t36.5 39q24 52 24 225q0 113 -9 174q-18 106 -107 106 q-30 0 -55 -14.5t-37 -39.5q-24 -51 -24 -226q0 -173 24 -225z" />
<glyph unicode="1" d="M55 0v60h169v525l-123 -46l-21 57l211 80v-616h143v-60h-379z" />
<glyph unicode="2" d="M58 0v60l254 329q28 37 38.5 60.5t10.5 53.5q0 49 -29.5 79.5t-76.5 30.5q-53 0 -87 -35t-43 -99l-66 9q31 188 195 188q80 0 129 -46t49 -122q0 -74 -64 -156l-225 -292h287v-60h-372z" />
<glyph unicode="3" d="M64 -9v61q82 2 123 9.5t77 29.5q46 28 72 68.5t26 84.5q0 55 -39 86t-109 31q-37 0 -78 -8v51l197 203h-278v60h369v-60l-184 -189q93 -3 142.5 -47t49.5 -124q0 -77 -49.5 -140t-133.5 -92q-59 -21 -185 -24z" />
<glyph unicode="4" d="M55 167l99 509l66 -14l-85 -435h181v339h67v-339h53v-60h-53v-167h-67v167h-261z" />
<glyph unicode="5" d="M60 -10v61q84 0 130.5 9.5t81.5 32.5q85 59 85 153q0 52 -31.5 83t-84.5 31q-46 0 -112 -35h-48v342h341v-60h-274v-205q56 21 103 21q77 0 126.5 -50.5t49.5 -129.5q0 -69 -41.5 -129.5t-110.5 -91.5q-64 -29 -215 -32z" />
<glyph unicode="6" d="M402 618l-38 -55q-56 50 -106 50q-67 0 -99 -58t-34 -185q37 30 66.5 42t66.5 12q80 0 125.5 -57t45.5 -157q0 -98 -51.5 -158.5t-133.5 -60.5q-100 0 -145 79.5t-45 257.5q0 348 199 348q83 0 149 -58zM125 296v-11q0 -231 116 -231q55 0 86.5 40.5t31.5 111.5 q0 75 -28 115t-80 40q-39 0 -77 -25q-18 -11 -31 -23q-18 -15 -18 -17z" />
<glyph unicode="7" d="M87 18l266 589h-275v60h371l-303 -676z" />
<glyph unicode="8" d="M53 171q0 59 28 96t105 78q-62 41 -87 77t-25 86q0 72 48.5 120t121.5 48q72 0 120.5 -48t48.5 -120q0 -50 -25 -86t-87 -77q77 -41 105 -78t28 -96q0 -79 -53.5 -129.5t-136.5 -50.5q-84 0 -137.5 50.5t-53.5 129.5zM244 381q59 38 79 62.5t20 61.5q0 49 -27.5 78.5 t-71.5 29.5q-45 0 -72.5 -29.5t-27.5 -78.5q0 -38 22 -63q12 -16 27 -27q48 -36 51 -34zM123 169q0 -50 34 -82.5t87 -32.5q52 0 86 32.5t34 82.5q0 47 -31 79q-19 19 -38 32q-50 32 -51 31q-72 -41 -96.5 -70t-24.5 -72z" />
<glyph unicode="9" d="M81 49l39 55q54 -50 105 -50q68 0 99.5 58t33.5 185q-37 -30 -66.5 -42t-66.5 -12q-80 0 -125.5 57t-45.5 157q0 98 51.5 158.5t133.5 60.5q100 0 145 -79.5t45 -257.5q0 -348 -199 -348q-83 0 -149 58zM358 371v11q0 231 -116 231q-55 0 -86.5 -41t-31.5 -112 q0 -74 28.5 -114t80.5 -40q38 0 77 25q20 14 31 24q17 15 17 16z" />
<glyph unicode=":" d="M198 284v148h92v-148h-92zM198 0v148h92v-148h-92z" />
<glyph unicode=";" d="M209 284v148h92v-148h-92zM159 -10q32 22 41 44.5t9 81.5v32h92v-32q0 -114 -111 -175z" />
<glyph unicode="&#x3c;" d="M15 293v49l440 196v-70l-351 -150l351 -150v-70z" />
<glyph unicode="=" d="M31 366v63h426v-63h-426zM31 227v63h426v-63h-426z" />
<glyph unicode="&#x3e;" d="M33 98v70l350 150l-350 150v70l440 -196v-49z" />
<glyph unicode="?" d="M205 220q1 8 1 17q2 62 13 82.5t65 66.5q41 35 57 61.5t16 58.5q0 49 -28 78t-74 29q-100 0 -127 -138l-66 17q21 96 67 140t125 44q78 0 125.5 -46.5t47.5 -123.5q0 -47 -22 -85t-77 -85q-36 -31 -44 -46.5t-8 -55.5q0 -1 -0.5 -6t-0.5 -8h-70zM195 0v140h92v-140h-92z " />
<glyph unicode="@" d="M438 38l30 -53q-88 -58 -186 -58q-112 0 -176 91.5t-64 251.5q0 158 64.5 250.5t175.5 92.5q85 0 130 -47.5t45 -135.5q0 -34 -1 -101.5t-1 -100.5q0 -58 24 -127l-57 -14q-14 45 -16 56q-46 -65 -101 -65q-56 0 -89 48.5t-33 129.5q0 80 39 131t100 51q30 0 73 -19v8 q0 134 -115 134q-82 0 -129 -76.5t-47 -209.5q0 -140 49.5 -218t138.5 -78q74 0 146 59zM313 139q21 0 38 16t43 63q0 24 0.5 71t0.5 71q-41 21 -62 21q-40 0 -63.5 -36t-23.5 -96q0 -49 19 -79.5t48 -30.5z" />
<glyph unicode="A" d="M35 5l168 662h81l168 -662l-65 -17l-52 218h-182l-52 -218zM169 266h150l-75 312z" />
<glyph unicode="B" d="M66 0v60h55v547h-55v60h177q85 0 130.5 -43.5t45.5 -124.5q0 -85 -72 -129q54 -24 78.5 -64.5t24.5 -105.5q0 -94 -45 -147t-124 -53h-215zM188 393h64q97 0 97 105q0 109 -104 109h-57v-214zM188 60h84q108 0 108 135q0 72 -29.5 105t-93.5 33h-69v-273z" />
<glyph unicode="C" d="M376 138l55 -38q-71 -109 -173 -109q-98 0 -149 88t-51 255t51 255t149 88q53 0 92 -26t71 -83l-56 -34q-24 43 -48.5 61.5t-59.5 18.5q-129 0 -129 -280q0 -137 33 -208.5t96 -71.5q67 0 119 84z" />
<glyph unicode="D" d="M63 0v60h55v547h-55v60h180q115 0 162.5 -76t47.5 -258t-47.5 -257.5t-162.5 -75.5h-180zM185 60h58q79 0 109.5 59.5t30.5 213.5t-30.5 214t-109.5 60h-58v-547z" />
<glyph unicode="E" d="M102 0v667h324v-60h-257v-220h212v-60h-212v-267h257v-60h-324z" />
<glyph unicode="F" d="M121 0v667h327v-60h-260v-220h218v-60h-218v-327h-67z" />
<glyph unicode="G" d="M425 568l-59 -36q-46 81 -112 81q-59 0 -90 -75t-31 -216q0 -135 37 -211q13 -27 38.5 -42.5t54.5 -15.5q49 0 89 31v201h-124v60h191v-297q-73 -58 -154 -58q-97 0 -149.5 88.5t-52.5 251.5t51.5 254.5t143.5 91.5q97 0 167 -108z" />
<glyph unicode="H" d="M74 0v667h67v-280h206v280h67v-667h-67v327h-206v-327h-67z" />
<glyph unicode="I" d="M120 0v60h91v547h-91v60h248v-60h-90v-547h90v-60h-248z" />
<glyph unicode="J" d="M382 667v-459q0 -94 -26 -139q-21 -37 -58.5 -58t-83.5 -21q-56 0 -97.5 33.5t-54.5 90.5q-9 35 -9 128h67v-34q0 -81 23.5 -118t73.5 -37q47 0 72.5 36.5t25.5 104.5v473h67z" />
<glyph unicode="K" d="M106 0v667h67v-275h18l186 287l54 -34l-183 -281l219 -343l-56 -34l-215 342h-23v-329h-67z" />
<glyph unicode="L" d="M114 0v667h67v-607h274v-60h-341z" />
<glyph unicode="M" d="M49 0l20 667h79l96 -283l96 283h79l20 -667h-66l-14 557l-115 -336l-115 336l-14 -557h-66z" />
<glyph unicode="N" d="M77 0v667h77l162 -427q13 -33 38 -134q-3 101 -3 139v422h60v-667h-77l-161 427q-21 54 -39 135v-29q0 -30 0.5 -47.5t0.5 -20t0.5 -4t0.5 -4.5q1 -18 1 -35v-422h-60z" />
<glyph unicode="O" d="M107 70q-48 80 -48 266q0 185 48 265q21 35 59 56.5t78 21.5t77.5 -21.5t59.5 -56.5q48 -80 48 -265t-48 -266q-21 -35 -59 -56.5t-78 -21.5t-78.5 21.5t-58.5 56.5zM244 55q63 0 89 63.5t26 217.5q0 120 -12 175q-24 105 -103 105q-63 0 -89 -63.5t-26 -216.5 q0 -154 26 -217.5t89 -63.5z" />
<glyph unicode="P" d="M106 0v667h145q89 0 137 -46t48 -131q0 -86 -44.5 -139.5t-116.5 -53.5h-102v-297h-67zM173 357h81q112 0 112 133q0 117 -114 117h-79v-250z" />
<glyph unicode="Q" d="M377 -19l-39 47q-44 -37 -94 -37q-86 0 -135.5 91.5t-49.5 251.5t49.5 251.5t135.5 91.5t135.5 -91.5t49.5 -251.5q0 -162 -50 -253l49 -58zM262 221l71 -84q26 73 26 194q0 283 -116 283q-114 0 -114 -287q0 -131 29.5 -202t84.5 -71q31 0 54 22l-86 101z" />
<glyph unicode="R" d="M106 0v667h145q51 0 77.5 -6.5t49.5 -25.5q58 -47 58 -145q0 -145 -116 -187l138 -287l-60 -29l-150 310h-75v-297h-67zM173 357h81q58 0 85 32t27 101q0 61 -27 89t-86 28h-80v-250z" />
<glyph unicode="S" d="M75 175l66 10q10 -74 33 -102.5t74 -28.5q47 0 73 32t26 90q0 60 -42 99q-22 20 -63 44l-16 9l-16 10l-16 9q-54 30 -77 67.5t-23 91.5q0 74 43.5 122.5t110.5 48.5q124 0 156 -152l-65 -10q-21 99 -91 99q-40 0 -64 -28.5t-24 -77.5q0 -43 20 -66.5t96 -68.5 q79 -47 107.5 -87.5t28.5 -105.5q0 -87 -45 -138t-122 -51t-118 44t-52 140z" />
<glyph unicode="T" d="M212 0v607h-144v60h351v-60h-140v-607h-67z" />
<glyph unicode="U" d="M81 187v480h67v-480q0 -70 23 -101.5t73 -31.5q51 0 74 31.5t23 101.5v480h67v-480q0 -196 -164 -196q-163 0 -163 196z" />
<glyph unicode="V" d="M235 -13l-197 674l68 18l138 -499l138 499l67 -18l-197 -674h-17z" />
<glyph unicode="W" d="M102 -13l-66 679l66 4l28 -293q5 -50 5 -199l6 25q13 53 16 68.5t4 18.5q12 50 21 73l62 167l61 -167q13 -37 30 -110l17 -75q0 149 5 199l28 293l66 -4l-66 -679h-29l-81 273q-9 30 -31 130q-24 -104 -32 -130l-81 -273h-29z" />
<glyph unicode="X" d="M37 15l174 349l-143 287l62 31l114 -250l114 250l62 -31l-143 -287l174 -349l-60 -31l-146 308l-148 -308z" />
<glyph unicode="Y" d="M211 0v263l-173 391l62 25l145 -338l144 338l62 -25l-173 -391v-263h-67z" />
<glyph unicode="Z" d="M48 0l283 607h-254v60h355l-282 -607h290v-60h-392z" />
<glyph unicode="[" d="M122 -24v714h270v-60h-203v-594h203v-60h-270z" />
<glyph unicode="\" d="M386 -21l-369 675l58 33l369 -676z" />
<glyph unicode="]" d="M95 -24v60h203v594h-203v60h270v-714h-270z" />
<glyph unicode="^" d="M90 462l122 200h65l122 -200h-69l-86 122l-85 -122h-69z" />
<glyph unicode="_" d="M0 -80h488v-70h-488v70z" />
<glyph unicode="`" d="M331 550l-186 82l36 63l177 -101z" />
<glyph unicode="a" d="M37 10l164 511h86l163 -511l-65 -23l-49 155h-185l-48 -155zM170 202h148l-74 241z" />
<glyph unicode="b" d="M66 0v60h55v401h-55v60h177q85 0 130.5 -35.5t45.5 -103.5q0 -73 -58 -107q89 -31 89 -126q0 -70 -45 -109.5t-124 -39.5h-215zM188 298h71q43 0 67 22t24 63q0 78 -105 78h-57v-163zM188 60h90q102 0 102 85q0 49 -29.5 71t-93.5 22h-69v-178z" />
<glyph unicode="c" d="M377 138l54 -38q-40 -59 -79 -84t-94 -25q-94 0 -147 71.5t-53 198.5q0 124 53 196.5t142 72.5q55 0 94 -26.5t70 -84.5l-60 -31q-42 79 -103 79t-93.5 -55t-32.5 -157q0 -94 33.5 -147.5t92.5 -53.5q38 0 65.5 19t57.5 65z" />
<glyph unicode="d" d="M63 0v60h55v401h-55v60h187q57 0 92.5 -13.5t62.5 -46.5q48 -56 48 -200q0 -88 -15 -138t-51 -81q-49 -42 -137 -42h-187zM185 60h62q76 0 106 44.5t30 156.5q0 111 -30 155.5t-106 44.5h-62v-401z" />
<glyph unicode="e" d="M102 0v521h324v-60h-257v-156h212v-60h-212v-185h257v-60h-324z" />
<glyph unicode="f" d="M121 0v521h327v-60h-260v-156h218v-60h-218v-245h-67z" />
<glyph unicode="g" d="M419 278v-230q-72 -58 -159 -58q-94 0 -145.5 71t-51.5 199q0 127 51.5 198.5t143.5 71.5q103 0 167 -100l-57 -37q-44 74 -114 74q-58 0 -89.5 -54t-31.5 -154t32 -153t91 -53q52 0 96 28v137h-124v60h191z" />
<glyph unicode="h" d="M74 0v521h67v-216h206v216h67v-521h-67v245h-206v-245h-67z" />
<glyph unicode="i" d="M137 0v60h73v401h-73v60h213v-60h-73v-401h73v-60h-213z" />
<glyph unicode="j" d="M382 521v-351q0 -44 -5.5 -67.5t-21.5 -45.5q-23 -31 -60.5 -48.5t-80.5 -17.5q-56 0 -95.5 26.5t-54.5 73.5q-11 32 -11 104h62v-15q0 -65 24 -95.5t75 -30.5q49 0 75 27.5t26 78.5v361h67z" />
<glyph unicode="k" d="M106 0v521h67v-224h25l179 237l51 -40l-174 -219l204 -245l-51 -43l-211 259h-23v-246h-67z" />
<glyph unicode="l" d="M114 0v521h67v-461h274v-60h-341z" />
<glyph unicode="m" d="M70 0l21 521h80l84 -226l83 226h80l21 -521h-63l-14 422l-107 -274l-108 274l-14 -422h-63z" />
<glyph unicode="n" d="M77 0v521h76l159 -320q16 -33 45 -119q-6 74 -6 125v314h60v-521h-76l-157 320q-18 36 -47 119q6 -74 6 -126v-313h-60z" />
<glyph unicode="o" d="M244 -9q-87 0 -136 71.5t-49 198.5q0 126 49.5 197.5t135.5 71.5q87 0 136 -71.5t49 -197.5q0 -127 -49 -198.5t-136 -71.5zM244 54q56 0 85.5 53t29.5 154q0 100 -29.5 153t-85.5 53t-85.5 -53t-29.5 -153q0 -101 29.5 -154t85.5 -53z" />
<glyph unicode="p" d="M106 0v521h152q49 0 72.5 -5t47.5 -21q58 -39 58 -116q0 -68 -41.5 -111.5t-106.5 -43.5h-115v-224h-67zM173 284h84q58 0 84 22.5t26 71.5q0 83 -110 83h-84v-177z" />
<glyph unicode="q" d="M402 -29l-58 53q-46 -33 -100 -33q-87 0 -136 71.5t-49 198.5q0 126 49.5 197.5t135.5 71.5q87 0 136 -71.5t49 -198.5q0 -125 -44 -190l59 -54zM250 194l84 -78q25 56 25 144q0 100 -29.5 153.5t-85.5 53.5t-85.5 -53t-29.5 -153q0 -101 29.5 -154t85.5 -53q28 0 51 14 l-86 79z" />
<glyph unicode="r" d="M94 0v521h170q75 0 110 -27q53 -39 53 -113q0 -52 -28 -91t-78 -57l127 -211l-58 -35l-133 236h-96v-223h-67zM161 283h80q55 0 85.5 25.5t30.5 70.5q0 44 -27 64q-13 11 -31.5 14.5t-61.5 3.5h-76v-178z" />
<glyph unicode="s" d="M75 146l60 19q24 -111 114 -111q44 0 70.5 24t26.5 64q0 37 -18.5 55t-85.5 46q-65 27 -97 47q-50 32 -50 100q0 62 42.5 101t110.5 39q122 0 158 -131l-64 -19q-12 47 -34.5 67.5t-61.5 20.5q-38 0 -61 -20t-23 -52q0 -38 27 -57q15 -11 86 -40q81 -33 109.5 -65 t28.5 -90q0 -69 -45 -111t-119 -42q-143 0 -174 155z" />
<glyph unicode="t" d="M212 0v461h-144v60h351v-60h-140v-461h-67z" />
<glyph unicode="u" d="M81 154v367h67v-367q0 -52 23 -76.5t73 -24.5t73.5 24.5t23.5 76.5v367h67v-367q0 -79 -42 -121t-122 -42q-79 0 -121 42t-42 121z" />
<glyph unicode="v" d="M238 -13l-200 523l64 24l142 -382l142 382l63 -24l-199 -523h-12z" />
<glyph unicode="w" d="M112 -11l-75 539l68 8l31 -249l6 -58l5 -61q12 52 31 104l56 152h19l57 -152q20 -54 31 -104l1 20q2 28 9 99l31 249l68 -8l-75 -539h-23l-76 218q-22 62 -32 101q-11 -38 -33 -101l-76 -218h-23z" />
<glyph unicode="x" d="M44 27l161 249l-147 230l61 40l124 -210l124 210l61 -40l-147 -230l161 -249l-59 -40l-140 230l-139 -230z" />
<glyph unicode="y" d="M210 0v201l-168 300l63 33l139 -268l138 268l63 -33l-168 -300v-201h-67z" />
<glyph unicode="z" d="M48 0l273 461h-244v60h355l-271 -461h279v-60h-392z" />
<glyph unicode="{" d="M203 -46v228q0 39 -17.5 60.5t-56.5 30.5q39 10 56.5 31.5t17.5 58.5v188q0 61 35 86.5t120 24.5q-75 -15 -75 -98v-147q0 -62 -4.5 -82t-23.5 -37q-15 -14 -52 -25q46 -13 63 -37t17 -75v-235q0 -77 76 -96h-25q-71 0 -101 28.5t-30 95.5z" />
<glyph unicode="|" d="M205 -146v875h78v-875h-78z" />
<glyph unicode="}" d="M129 -170q76 19 76 96v235q0 51 17 75t63 37q-38 11 -52 25q-19 17 -23.5 37t-4.5 82v147q0 83 -75 98q85 1 120 -24.5t35 -86.5v-188q0 -71 74 -90q-39 -8 -56.5 -29.5t-17.5 -61.5v-228q0 -68 -30 -96t-104 -28h-22z" />
<glyph unicode="~" d="M35 593l-30 19q30 56 60 80t71 24q40 0 115 -39q70 -35 103 -35q29 0 51 17t47 59l31 -18q-54 -103 -134 -103q-25 0 -65 15l-74 36q-48 24 -77 24q-53 0 -98 -79z" />
<glyph unicode="&#xa0;" />
<glyph unicode="&#xa1;" d="M193 405v141h92v-141h-92zM193 -121l13 460h65l24 -460h-102z" />
<glyph unicode="&#xa2;" d="M218 -13v84q-77 15 -119 84.5t-42 181.5q0 111 43 181.5t118 84.5v77h66v-76q79 -9 132 -108l-60 -32q-31 59 -72 74v-405q46 12 92 81l54 -38q-35 -53 -68.5 -77.5t-77.5 -29.5v-82h-66zM218 136v401q-91 -37 -91 -206q0 -161 91 -195z" />
<glyph unicode="&#xa3;" d="M75 38l18 30q60 101 60 148q0 53 -22 128h-107v60h89q-19 69 -19 109q0 69 49 116t121 47q120 0 175 -116l-60 -22q-22 41 -48 59.5t-63 18.5q-49 0 -78.5 -29.5t-29.5 -78.5q0 -32 21 -104h184v-60h-166q21 -81 21 -126q0 -55 -46 -134q43 10 65 10q33 0 70 -20 q39 -20 50 -20q27 0 65 35l39 -44q-32 -32 -53.5 -43.5t-48.5 -11.5t-69 21q-35 18 -68 18q-43 0 -112 -39z" />
<glyph unicode="&#xa4;" d="M56 106l-40 41l84 83q-29 50 -29 104t29 104l-84 84l40 40l84 -84q55 35 104 35t104 -35l84 84l40 -40l-84 -84q29 -50 29 -104t-29 -104l84 -83l-40 -41l-84 85q-55 -35 -104 -35t-104 35zM244 223q44 0 75 32.5t31 78.5t-31 79t-75 33t-75 -33t-31 -79t31 -78.5 t75 -32.5z" />
<glyph unicode="&#xa5;" d="M211 0v267h-147v60h122l-148 327l62 25l145 -338l143 338l62 -25l-147 -327h121v-60h-146v-267h-67z" />
<glyph unicode="&#xa6;" d="M221 340v327h47v-327h-47zM221 153h47v-320h-47v320z" />
<glyph unicode="&#xa7;" d="M77 122l68 23q32 -95 113 -95q36 0 60 20.5t24 51.5q0 24 -13.5 39.5t-53.5 35.5l-70 36q-65 34 -87.5 60t-22.5 68q0 60 50 98q-43 36 -43 89q0 54 43 91.5t105 37.5q100 0 150 -104l-59 -25q-33 71 -93 71q-34 0 -56.5 -20t-22.5 -50q0 -26 20 -44q9 -6 52 -28l65 -33 q57 -29 79.5 -55t22.5 -63q0 -59 -54 -100q54 -43 54 -99q0 -58 -44.5 -97t-112.5 -39q-129 0 -174 131zM239 289l66 -35q33 27 33 65q0 39 -62 70l-82 42q-30 -33 -30 -67q0 -24 12 -36t63 -39z" />
<glyph unicode="&#xa8;" d="M336 555q-21 0 -34.5 18t-13.5 45t13.5 45t34.5 18q20 0 33.5 -18t13.5 -45t-13.5 -45t-33.5 -18zM152 555q-21 0 -34.5 18t-13.5 45t13.5 45t34.5 18q20 0 33.5 -18t13.5 -45t-13.5 -45t-33.5 -18z" />
<glyph unicode="&#xa9;" d="M245 -3q-106 0 -180 98.5t-74 238.5t74 238t180 98q105 0 178.5 -98t73.5 -238t-73.5 -238.5t-178.5 -98.5zM245 47q82 0 146 82.5t64 204.5t-66 204t-144 82q-80 0 -146 -82t-66 -204q0 -117 63 -202t149 -85zM331 272h50q-5 -59 -40.5 -96.5t-84.5 -37.5 q-68 0 -111.5 57t-43.5 142q0 86 42 141.5t111 55.5q50 0 85 -34.5t42 -94.5h-50q-10 79 -76 79q-51 0 -77.5 -39.5t-26.5 -106.5q0 -64 27.5 -107t77.5 -43q32 0 51.5 21.5t23.5 62.5z" />
<glyph unicode="&#xaa;" d="M98 358l111 309h70l111 -309l-63 -20l-32 92h-102l-32 -92zM211 483h66l-33 97zM84 231v55h320v-55h-320z" />
<glyph unicode="&#xab;" d="M208 330l254 240l47 -49l-205 -191l205 -192l-47 -50zM237 88l-253 242l253 240l48 -49l-205 -191l205 -192z" />
<glyph unicode="&#xac;" d="M27 224v43h433v-267h-47v224h-386z" />
<glyph unicode="&#xad;" d="M133 227v67h222v-67h-222z" />
<glyph unicode="&#xae;" d="M244 267q-82 0 -141 58.5t-59 141.5t59 141.5t141 58.5q83 0 141.5 -58.5t58.5 -141.5t-59 -141.5t-141 -58.5zM244 307q65 0 111 46.5t46 113.5q0 66 -46 113t-111 47t-111 -46.5t-46 -113.5t46 -113.5t111 -46.5zM179 360v220h73q78 0 78 -61q0 -37 -40 -55l44 -104 h-43l-38 93h-33v-93h-41zM220 482h29q40 0 40 38q0 31 -38 31h-31v-69z" />
<glyph unicode="&#xaf;" d="M100 584v62h287v-62h-287z" />
<glyph unicode="&#xb0;" d="M244 374q-63 0 -108 45t-45 109q0 63 45 108t108 45q64 0 109 -45t45 -108q0 -64 -45 -109t-109 -45zM244 430q36 0 61 28.5t25 69.5t-25 69t-61 28q-35 0 -60 -28.5t-25 -68.5q0 -41 25 -69.5t60 -28.5z" />
<glyph unicode="&#xb1;" d="M214 124v180h-188v59h188v190h60v-190h188v-59h-188v-180h-60zM26 18v59h436v-59h-436z" />
<glyph unicode="&#xb2;" d="M134 342v42l140 161q24 27 24 48q0 20 -12.5 32t-34.5 12q-52 0 -61 -66l-57 7q10 56 38 82t80 26q47 0 76.5 -25t29.5 -65t-37 -82l-108 -124h144v-48h-222z" />
<glyph unicode="&#xb3;" d="M136 337v48q55 2 75 5t39 13q47 26 47 65q0 47 -69 47q-24 0 -53 -6v40l92 84h-136v47h221v-41l-87 -79q91 -17 91 -91q0 -40 -29 -72.5t-78 -47.5q-29 -9 -113 -12z" />
<glyph unicode="&#xb4;" d="M172 550l-27 44l177 101l36 -63z" />
<glyph unicode="&#xb5;" d="M148 13v-163h-67v671h67v-367q0 -52 23 -76.5t73 -24.5t73.5 24.5t23.5 76.5v367h67v-367q0 -79 -42 -121t-122 -42q-57 0 -96 22z" />
<glyph unicode="&#xb6;" d="M183 -36h8q32 0 41 11.5t9 54.5v283q-15 -1 -32 -1q-88 0 -137 46t-49 129q0 108 74 151q26 15 55.5 19.5t98.5 4.5h215v-30h-9q-32 0 -40.5 -11.5t-8.5 -54.5v-536q0 -43 8.5 -54.5t40.5 -11.5h9v-30h-283v30zM293 -36h63v668h-63v-668z" />
<glyph unicode="&#xb7;" d="M199 203v108h91v-108h-91z" />
<glyph unicode="&#xb8;" d="M177 -111q45 -19 74 -19q32 0 32 20q0 16 -17.5 22.5t-68.5 9.5l34 91h59l-18 -55q79 -9 79 -71q0 -32 -27 -54t-65 -22t-102 28z" />
<glyph unicode="&#xb9;" d="M155 342v47h74v229l-61 -20l-19 44l137 47v-300h62v-47h-193z" />
<glyph unicode="&#xba;" d="M244 343q-60 0 -94.5 44t-34.5 121t34.5 121t94.5 44t94.5 -44t34.5 -121t-34.5 -121t-94.5 -44zM244 398q63 0 63 110t-63 110t-63 -110t63 -110zM84 231v55h320v-55h-320z" />
<glyph unicode="&#xbb;" d="M204 138l205 192l-205 191l48 49l253 -240l-254 -242zM27 88l-47 50l205 192l-205 191l47 49l254 -240z" />
<glyph unicode="&#xbc;" d="M-12 342v47h74v229l-61 -20l-19 44l137 47v-300h62v-47h-193zM29 14l377 665l53 -26l-377 -664zM280 80l58 265l57 -11l-46 -207h74v163h57v-163h28v-47h-28v-80h-57v80h-143z" />
<glyph unicode="&#xbd;" d="M-2 342v47h74v229l-61 -20l-19 44l137 47v-300h62v-47h-193zM36 14l376 665l54 -26l-377 -664zM283 0v42l140 161q24 27 24 48q0 20 -12.5 32t-34.5 12q-52 0 -61 -66l-57 7q10 56 38 82t80 26q47 0 76.5 -25t29.5 -65t-37 -82l-108 -124h144v-48h-222z" />
<glyph unicode="&#xbe;" d="M-14 337v48q55 2 75 5t39 13q47 26 47 65q0 47 -69 47q-24 0 -53 -6v40l92 84h-136v47h221v-41l-87 -79q91 -17 91 -91q0 -40 -29 -72.5t-78 -47.5q-29 -9 -113 -12zM29 14l376 665l53 -26l-376 -664zM279 80l58 265l57 -11l-46 -207h74v163h57v-163h29v-47h-29v-80h-57 v80h-143z" />
<glyph unicode="&#xbf;" d="M202 406v140h92v-140h-92zM360 71l67 -17q-22 -96 -67.5 -140t-124.5 -44q-78 0 -125.5 46.5t-47.5 123.5q0 47 22 84.5t77 85.5q36 31 44 46.5t8 55.5v14h70v-17q0 -60 -11 -80.5t-67 -68.5q-41 -35 -57 -61.5t-16 -58.5q0 -49 28 -78t74 -29q100 0 126 138z" />
<glyph unicode="&#xc0;" d="M294 700l-161 109l34 39l148 -120zM35 5l168 662h81l168 -662l-65 -17l-52 218h-182l-52 -218zM169 266h150l-75 312z" />
<glyph unicode="&#xc1;" d="M172 695l-27 45l177 100l36 -62zM35 5l168 662h81l168 -662l-65 -17l-52 218h-182l-52 -218zM169 266h150l-75 312z" />
<glyph unicode="&#xc2;" d="M118 697l-24 36l151 102l151 -102l-24 -36l-127 62zM35 5l168 662h81l168 -662l-65 -17l-52 218h-182l-52 -218zM169 266h150l-75 312z" />
<glyph unicode="&#xc3;" d="M129 674l-54 22q26 65 48.5 89t57.5 24q29 0 64 -26l24 -18q27 -20 42 -20q17 0 26.5 14t20.5 54l57 -17q-20 -66 -41.5 -91t-58.5 -25q-35 0 -62 21l-34 26q-23 17 -38 17q-16 0 -26 -14t-26 -56zM35 5l168 662h81l168 -662l-65 -17l-52 218h-182l-52 -218zM169 266h150 l-75 312z" />
<glyph unicode="&#xc4;" d="M336 700q-21 0 -34.5 18t-13.5 45t13.5 45t34.5 18q20 0 33.5 -18t13.5 -45t-13.5 -45t-33.5 -18zM152 700q-21 0 -34.5 18t-13.5 45t13.5 45t34.5 18q20 0 33.5 -18t13.5 -45t-13.5 -45t-33.5 -18zM35 5l168 662h81l168 -662l-65 -17l-52 218h-182l-52 -218zM169 266 h150l-75 312z" />
<glyph unicode="&#xc5;" d="M244 692q-37 0 -62 26t-25 64q0 33 26.5 58.5t60.5 25.5q37 0 61.5 -25t24.5 -62t-25 -62t-61 -25zM244 732q19 0 32.5 14t13.5 33t-13.5 32.5t-32.5 14.5t-33 -12.5t-14 -32.5q0 -21 13.5 -35t33.5 -14zM35 5l168 662h81l168 -662l-65 -17l-52 218h-182l-52 -218z M169 266h150l-75 312z" />
<glyph unicode="&#xc6;" d="M-13 5l168 662h298v-60h-158v-220h146v-60h-146v-267h158v-60h-221v206h-123l-53 -218zM122 266h110v341h-30z" />
<glyph unicode="&#xc7;" d="M177 -110q43 -19 74 -19q32 0 32 20q0 16 -17.5 22.5t-68.5 9.5l26 71q-165 34 -165 340q0 167 51 255t149 88q103 0 163 -108l-56 -35q-24 43 -48.5 61.5t-59.5 18.5q-129 0 -129 -280q0 -137 33 -208.5t96 -71.5q68 0 119 85l55 -39q-33 -51 -67 -75t-81 -32l-11 -34 q79 -9 79 -71q0 -32 -27 -54t-65 -22t-102 27z" />
<glyph unicode="&#xc8;" d="M314 700l-161 109l34 39l148 -120zM102 0v667h324v-60h-257v-220h212v-60h-212v-267h257v-60h-324z" />
<glyph unicode="&#xc9;" d="M192 695l-27 45l177 100l36 -62zM102 0v667h324v-60h-257v-220h212v-60h-212v-267h257v-60h-324z" />
<glyph unicode="&#xca;" d="M139 697l-24 36l151 102l151 -102l-24 -36l-127 62zM102 0v667h324v-60h-257v-220h212v-60h-212v-267h257v-60h-324z" />
<glyph unicode="&#xcb;" d="M356 700q-21 0 -34.5 18t-13.5 45t13.5 45t34.5 18q20 0 33.5 -18t13.5 -45t-13.5 -45t-33.5 -18zM172 700q-21 0 -34.5 18t-13.5 45t13.5 45t34.5 18q20 0 33.5 -18t13.5 -45t-13.5 -45t-33.5 -18zM102 0v667h324v-60h-257v-220h212v-60h-212v-267h257v-60h-324z" />
<glyph unicode="&#xcc;" d="M294 700l-161 109l34 39l148 -120zM120 0v60h91v547h-91v60h248v-60h-90v-547h90v-60h-248z" />
<glyph unicode="&#xcd;" d="M172 695l-27 45l177 100l36 -62zM120 0v60h91v547h-91v60h248v-60h-90v-547h90v-60h-248z" />
<glyph unicode="&#xce;" d="M118 697l-24 36l151 102l151 -102l-24 -36l-127 62zM120 0v60h91v547h-91v60h248v-60h-90v-547h90v-60h-248z" />
<glyph unicode="&#xcf;" d="M336 700q-21 0 -34.5 18t-13.5 45t13.5 45t34.5 18q20 0 33.5 -18t13.5 -45t-13.5 -45t-33.5 -18zM152 700q-21 0 -34.5 18t-13.5 45t13.5 45t34.5 18q20 0 33.5 -18t13.5 -45t-13.5 -45t-33.5 -18zM120 0v60h91v547h-91v60h248v-60h-90v-547h90v-60h-248z" />
<glyph unicode="&#xd0;" d="M63 0v60h55v267h-50v60h50v220h-55v60h180q114 0 161.5 -76t47.5 -258t-47.5 -257.5t-161.5 -75.5h-180zM185 60h58q78 0 108.5 59.5t30.5 213.5t-30.5 214t-108.5 60h-58v-220h89v-60h-89v-267z" />
<glyph unicode="&#xd1;" d="M129 674l-54 22q26 65 48.5 89t57.5 24q29 0 64 -26l24 -18q27 -20 42 -20q17 0 26.5 14t20.5 54l57 -17q-20 -66 -41.5 -91t-58.5 -25q-35 0 -62 21l-34 26q-23 17 -38 17q-16 0 -26 -14t-26 -56zM77 0v667h77l162 -427q13 -33 38 -134q-3 101 -3 139v422h60v-667h-77 l-161 427q-21 54 -39 135v-29q0 -30 0.5 -47.5t0.5 -20t0.5 -4t0.5 -4.5q1 -18 1 -35v-422h-60z" />
<glyph unicode="&#xd2;" d="M294 700l-161 109l34 39l148 -120zM107 70q-48 80 -48 266q0 185 48 265q21 35 59 56.5t78 21.5t77.5 -21.5t59.5 -56.5q48 -80 48 -265t-48 -266q-21 -35 -59 -56.5t-78 -21.5t-78.5 21.5t-58.5 56.5zM244 55q63 0 89 63.5t26 217.5q0 120 -12 175q-24 105 -103 105 q-63 0 -89 -63.5t-26 -216.5q0 -154 26 -217.5t89 -63.5z" />
<glyph unicode="&#xd3;" d="M172 695l-27 45l177 100l36 -62zM107 70q-48 80 -48 266q0 185 48 265q21 35 59 56.5t78 21.5t77.5 -21.5t59.5 -56.5q48 -80 48 -265t-48 -266q-21 -35 -59 -56.5t-78 -21.5t-78.5 21.5t-58.5 56.5zM244 55q63 0 89 63.5t26 217.5q0 120 -12 175q-24 105 -103 105 q-63 0 -89 -63.5t-26 -216.5q0 -154 26 -217.5t89 -63.5z" />
<glyph unicode="&#xd4;" d="M118 697l-24 36l151 102l151 -102l-24 -36l-127 62zM107 70q-48 80 -48 266q0 185 48 265q21 35 59 56.5t78 21.5t77.5 -21.5t59.5 -56.5q48 -80 48 -265t-48 -266q-21 -35 -59 -56.5t-78 -21.5t-78.5 21.5t-58.5 56.5zM244 55q63 0 89 63.5t26 217.5q0 120 -12 175 q-24 105 -103 105q-63 0 -89 -63.5t-26 -216.5q0 -154 26 -217.5t89 -63.5z" />
<glyph unicode="&#xd5;" d="M129 674l-54 22q26 65 48.5 89t57.5 24q29 0 64 -26l24 -18q27 -20 42 -20q17 0 26.5 14t20.5 54l57 -17q-20 -66 -41.5 -91t-58.5 -25q-35 0 -62 21l-34 26q-23 17 -38 17q-16 0 -26 -14t-26 -56zM107 70q-48 80 -48 266q0 185 48 265q21 35 59 56.5t78 21.5t77.5 -21.5 t59.5 -56.5q48 -80 48 -265t-48 -266q-21 -35 -59 -56.5t-78 -21.5t-78.5 21.5t-58.5 56.5zM244 55q63 0 89 63.5t26 217.5q0 120 -12 175q-24 105 -103 105q-63 0 -89 -63.5t-26 -216.5q0 -154 26 -217.5t89 -63.5z" />
<glyph unicode="&#xd6;" d="M336 700q-21 0 -34.5 18t-13.5 45t13.5 45t34.5 18q20 0 33.5 -18t13.5 -45t-13.5 -45t-33.5 -18zM152 700q-21 0 -34.5 18t-13.5 45t13.5 45t34.5 18q20 0 33.5 -18t13.5 -45t-13.5 -45t-33.5 -18zM107 70q-48 80 -48 266q0 185 48 265q21 35 59 56.5t78 21.5 t77.5 -21.5t59.5 -56.5q48 -80 48 -265t-48 -266q-21 -35 -59 -56.5t-78 -21.5t-78.5 21.5t-58.5 56.5zM244 55q63 0 89 63.5t26 217.5q0 120 -12 175q-24 105 -103 105q-63 0 -89 -63.5t-26 -216.5q0 -154 26 -217.5t89 -63.5z" />
<glyph unicode="&#xd7;" d="M102 151l-41 40l141 141l-141 141l43 43l140 -141l141 141l41 -41l-141 -141l141 -141l-43 -42l-140 141z" />
<glyph unicode="&#xd8;" d="M38 24l53 97q-25 70 -25 214q0 183 48 266q21 35 58.5 56.5t78.5 21.5q67 0 116 -51l32 57l52 -27l-48 -87q33 -79 33 -236q0 -184 -48 -265q-21 -35 -58.5 -56.5t-78.5 -21.5q-79 0 -129 66l-32 -60zM141 213l193 353q-28 50 -83 50q-62 0 -88.5 -62.5t-26.5 -206.5 q0 -79 5 -134zM159 125q28 -70 92 -70q62 0 88.5 62.5t26.5 206.5q0 86 -8 164z" />
<glyph unicode="&#xd9;" d="M295 700l-161 109l34 39l148 -120zM81 187v480h67v-480q0 -70 23 -101.5t73 -31.5q51 0 74 31.5t23 101.5v480h67v-480q0 -196 -164 -196q-163 0 -163 196z" />
<glyph unicode="&#xda;" d="M172 695l-27 45l177 100l36 -62zM81 187v480h67v-480q0 -70 23 -101.5t73 -31.5q51 0 74 31.5t23 101.5v480h67v-480q0 -196 -164 -196q-163 0 -163 196z" />
<glyph unicode="&#xdb;" d="M119 697l-24 36l151 102l151 -102l-24 -36l-127 62zM81 187v480h67v-480q0 -70 23 -101.5t73 -31.5q51 0 74 31.5t23 101.5v480h67v-480q0 -196 -164 -196q-163 0 -163 196z" />
<glyph unicode="&#xdc;" d="M337 700q-21 0 -34.5 18t-13.5 45t13.5 45t34.5 18q20 0 33.5 -18t13.5 -45t-13.5 -45t-33.5 -18zM153 700q-21 0 -34.5 18t-13.5 45t13.5 45t34.5 18q20 0 33.5 -18t13.5 -45t-13.5 -45t-33.5 -18zM81 187v480h67v-480q0 -70 23 -101.5t73 -31.5q51 0 74 31.5t23 101.5 v480h67v-480q0 -196 -164 -196q-163 0 -163 196z" />
<glyph unicode="&#xdd;" d="M197 695l-27 45l177 100l36 -62zM211 0v263l-173 391l62 25l145 -338l144 338l62 -25l-173 -391v-263h-67z" />
<glyph unicode="&#xde;" d="M106 0v667h67v-100h78q89 0 137 -46t48 -131q0 -86 -44.5 -139.5t-116.5 -53.5h-102v-197h-67zM173 257h81q112 0 112 133q0 117 -114 117h-79v-250z" />
<glyph unicode="&#xdf;" d="M95 0v419q0 37 39.5 74t109.5 37q62 0 99.5 -35.5t37.5 -92.5q0 -79 -55 -111q46 -12 71.5 -51.5t25.5 -88.5q0 -76 -41.5 -113.5t-93.5 -37.5h-81v60h66q80 0 80 88q0 100 -107 100v60q31 4 48 28.5t17 58.5q0 72 -74 72q-26 0 -42 -7t-22.5 -22.5t-8.5 -29t-2 -36.5 v-372h-67z" />
<glyph unicode="&#xe0;" d="M331 550l-186 82l36 63l177 -101zM37 10l164 511h86l163 -511l-65 -23l-49 155h-185l-48 -155zM170 202h148l-74 241z" />
<glyph unicode="&#xe1;" d="M172 550l-27 44l177 101l36 -63zM37 10l164 511h86l163 -511l-65 -23l-49 155h-185l-48 -155zM170 202h148l-74 241z" />
<glyph unicode="&#xe2;" d="M118 551l-24 36l151 102l151 -102l-24 -36l-127 62zM37 10l164 511h86l163 -511l-65 -23l-49 155h-185l-48 -155zM170 202h148l-74 241z" />
<glyph unicode="&#xe3;" d="M129 528l-54 22q26 65 48.5 89t57.5 24q28 0 64 -26l24 -18q27 -20 42 -20q17 0 26.5 14t20.5 54l57 -17q-20 -66 -41.5 -91t-58.5 -25q-35 0 -62 21l-34 26q-23 17 -38 17q-16 0 -26 -14t-26 -56zM37 10l164 511h86l163 -511l-65 -23l-49 155h-185l-48 -155zM170 202 h148l-74 241z" />
<glyph unicode="&#xe4;" d="M336 555q-21 0 -34.5 18t-13.5 45t13.5 45t34.5 18q20 0 33.5 -18t13.5 -45t-13.5 -45t-33.5 -18zM152 555q-21 0 -34.5 18t-13.5 45t13.5 45t34.5 18q20 0 33.5 -18t13.5 -45t-13.5 -45t-33.5 -18zM37 10l164 511h86l163 -511l-65 -23l-49 155h-185l-48 -155zM170 202 h148l-74 241z" />
<glyph unicode="&#xe5;" d="M244 541q-37 0 -62 26t-25 64q0 33 26.5 58.5t60.5 25.5q37 0 61.5 -25t24.5 -62t-25 -62t-61 -25zM244 581q19 0 32.5 14t13.5 33t-13.5 32.5t-32.5 14.5t-33 -12.5t-14 -32.5q0 -21 13.5 -35t33.5 -14zM37 10l164 511h86l163 -511l-65 -23l-49 155h-185l-48 -155z M170 202h148l-74 241z" />
<glyph unicode="&#xe6;" d="M-16 11l164 510h332v-60h-178v-156h145v-60h-145v-185h178v-60h-245v142h-137l-48 -155zM117 202h118v259h-42z" />
<glyph unicode="&#xe7;" d="M177 -110q43 -20 74 -20q32 0 32 21q0 16 -17.5 22t-68.5 9l26 71q-80 15 -122.5 84t-42.5 184q0 123 53 196t142 73q55 0 94 -26.5t70 -84.5l-60 -31q-42 79 -103 79t-93.5 -55t-32.5 -157q0 -94 33.5 -147.5t92.5 -53.5q38 0 65.5 19t57.5 65l54 -38q-35 -54 -68 -77.5 t-80 -30.5l-11 -34q79 -9 79 -71q0 -32 -27 -54t-65 -22t-102 28z" />
<glyph unicode="&#xe8;" d="M351 550l-186 82l36 63l177 -101zM102 0v521h324v-60h-257v-156h212v-60h-212v-185h257v-60h-324z" />
<glyph unicode="&#xe9;" d="M192 550l-27 44l177 101l36 -63zM102 0v521h324v-60h-257v-156h212v-60h-212v-185h257v-60h-324z" />
<glyph unicode="&#xea;" d="M139 551l-24 36l151 102l151 -102l-24 -36l-127 62zM102 0v521h324v-60h-257v-156h212v-60h-212v-185h257v-60h-324z" />
<glyph unicode="&#xeb;" d="M356 555q-21 0 -34.5 18t-13.5 45t13.5 45t34.5 18q20 0 33.5 -18t13.5 -45t-13.5 -45t-33.5 -18zM172 555q-21 0 -34.5 18t-13.5 45t13.5 45t34.5 18q20 0 33.5 -18t13.5 -45t-13.5 -45t-33.5 -18zM102 0v521h324v-60h-257v-156h212v-60h-212v-185h257v-60h-324z" />
<glyph unicode="&#xec;" d="M331 550l-186 82l36 63l177 -101zM137 0v60h73v401h-73v60h213v-60h-73v-401h73v-60h-213z" />
<glyph unicode="&#xed;" d="M172 550l-27 44l177 101l36 -63zM137 0v60h73v401h-73v60h213v-60h-73v-401h73v-60h-213z" />
<glyph unicode="&#xee;" d="M118 551l-24 36l151 102l151 -102l-24 -36l-127 62zM137 0v60h73v401h-73v60h213v-60h-73v-401h73v-60h-213z" />
<glyph unicode="&#xef;" d="M336 555q-21 0 -34.5 18t-13.5 45t13.5 45t34.5 18q20 0 33.5 -18t13.5 -45t-13.5 -45t-33.5 -18zM152 555q-21 0 -34.5 18t-13.5 45t13.5 45t34.5 18q20 0 33.5 -18t13.5 -45t-13.5 -45t-33.5 -18zM137 0v60h73v401h-73v60h213v-60h-73v-401h73v-60h-213z" />
<glyph unicode="&#xf0;" d="M62 0v60h55v254h-57v64h57v83h-55v60h187q63 0 103 -19t65 -62q34 -57 34 -180q0 -87 -15 -137t-51 -81q-49 -42 -136 -42h-187zM184 60h61q76 0 106 44.5t30 155.5q0 112 -30 156.5t-106 44.5h-61v-83h117v-64h-117v-254z" />
<glyph unicode="&#xf1;" d="M129 528l-54 22q26 65 48.5 89t57.5 24q28 0 64 -26l24 -18q27 -20 42 -20q17 0 26.5 14t20.5 54l57 -17q-20 -66 -41.5 -91t-58.5 -25q-35 0 -62 21l-34 26q-23 17 -38 17q-16 0 -26 -14t-26 -56zM77 0v521h76l159 -320q16 -33 45 -119q-6 74 -6 125v314h60v-521h-76 l-157 320q-18 36 -47 119q6 -74 6 -126v-313h-60z" />
<glyph unicode="&#xf2;" d="M331 550l-186 82l36 63l177 -101zM244 -9q-87 0 -136 71.5t-49 198.5q0 126 49.5 197.5t135.5 71.5q87 0 136 -71.5t49 -197.5q0 -127 -49 -198.5t-136 -71.5zM244 54q56 0 85.5 53t29.5 154q0 100 -29.5 153t-85.5 53t-85.5 -53t-29.5 -153q0 -101 29.5 -154t85.5 -53z " />
<glyph unicode="&#xf3;" d="M172 550l-27 44l177 101l36 -63zM244 -9q-87 0 -136 71.5t-49 198.5q0 126 49.5 197.5t135.5 71.5q87 0 136 -71.5t49 -197.5q0 -127 -49 -198.5t-136 -71.5zM244 54q56 0 85.5 53t29.5 154q0 100 -29.5 153t-85.5 53t-85.5 -53t-29.5 -153q0 -101 29.5 -154t85.5 -53z " />
<glyph unicode="&#xf4;" d="M118 551l-24 36l151 102l151 -102l-24 -36l-127 62zM244 -9q-87 0 -136 71.5t-49 198.5q0 126 49.5 197.5t135.5 71.5q87 0 136 -71.5t49 -197.5q0 -127 -49 -198.5t-136 -71.5zM244 54q56 0 85.5 53t29.5 154q0 100 -29.5 153t-85.5 53t-85.5 -53t-29.5 -153 q0 -101 29.5 -154t85.5 -53z" />
<glyph unicode="&#xf5;" d="M129 528l-54 22q26 65 48.5 89t57.5 24q28 0 64 -26l24 -18q27 -20 42 -20q17 0 26.5 14t20.5 54l57 -17q-20 -66 -41.5 -91t-58.5 -25q-35 0 -62 21l-34 26q-23 17 -38 17q-16 0 -26 -14t-26 -56zM244 -9q-87 0 -136 71.5t-49 198.5q0 126 49.5 197.5t135.5 71.5 q87 0 136 -71.5t49 -197.5q0 -127 -49 -198.5t-136 -71.5zM244 54q56 0 85.5 53t29.5 154q0 100 -29.5 153t-85.5 53t-85.5 -53t-29.5 -153q0 -101 29.5 -154t85.5 -53z" />
<glyph unicode="&#xf6;" d="M336 555q-21 0 -34.5 18t-13.5 45t13.5 45t34.5 18q20 0 33.5 -18t13.5 -45t-13.5 -45t-33.5 -18zM152 555q-21 0 -34.5 18t-13.5 45t13.5 45t34.5 18q20 0 33.5 -18t13.5 -45t-13.5 -45t-33.5 -18zM244 -9q-87 0 -136 71.5t-49 198.5q0 126 49.5 197.5t135.5 71.5 q87 0 136 -71.5t49 -197.5q0 -127 -49 -198.5t-136 -71.5zM244 54q56 0 85.5 53t29.5 154q0 100 -29.5 153t-85.5 53t-85.5 -53t-29.5 -153q0 -101 29.5 -154t85.5 -53z" />
<glyph unicode="&#xf7;" d="M244 448q-22 0 -36 14.5t-14 36.5q0 19 15 32.5t35 13.5t33.5 -14t13.5 -34t-14 -34.5t-33 -14.5zM26 304v59h436v-59h-436zM194 176q0 18 15 31.5t35 13.5t33.5 -14t13.5 -34t-14 -34.5t-33 -14.5q-22 0 -36 14.5t-14 37.5z" />
<glyph unicode="&#xf8;" d="M74 11l31 57q-46 71 -46 192q0 127 49 198.5t136 71.5q54 0 96 -30l21 38l50 -28l-29 -55q47 -74 47 -194q0 -127 -49 -198.5t-136 -71.5q-55 0 -98 32l-21 -39zM144 141l165 301q-27 25 -65 25q-56 0 -85.5 -53t-29.5 -154q0 -70 15 -119zM177 80q29 -26 67 -26 q56 0 85.5 53t29.5 153q0 71 -17 123z" />
<glyph unicode="&#xf9;" d="M331 550l-186 82l36 63l177 -101zM81 154v367h67v-367q0 -52 23 -76.5t73 -24.5t73.5 24.5t23.5 76.5v367h67v-367q0 -79 -42 -121t-122 -42q-79 0 -121 42t-42 121z" />
<glyph unicode="&#xfa;" d="M172 550l-27 44l177 101l36 -63zM81 154v367h67v-367q0 -52 23 -76.5t73 -24.5t73.5 24.5t23.5 76.5v367h67v-367q0 -79 -42 -121t-122 -42q-79 0 -121 42t-42 121z" />
<glyph unicode="&#xfb;" d="M119 551l-24 36l151 102l151 -102l-24 -36l-127 62zM81 154v367h67v-367q0 -52 23 -76.5t73 -24.5t73.5 24.5t23.5 76.5v367h67v-367q0 -79 -42 -121t-122 -42q-79 0 -121 42t-42 121z" />
<glyph unicode="&#xfc;" d="M337 555q-21 0 -34.5 18t-13.5 45t13.5 45t34.5 18q20 0 33.5 -18t13.5 -45t-13.5 -45t-33.5 -18zM153 555q-21 0 -34.5 18t-13.5 45t13.5 45t34.5 18q20 0 33.5 -18t13.5 -45t-13.5 -45t-33.5 -18zM81 154v367h67v-367q0 -52 23 -76.5t73 -24.5t73.5 24.5t23.5 76.5v367 h67v-367q0 -79 -42 -121t-122 -42q-79 0 -121 42t-42 121z" />
<glyph unicode="&#xfd;" d="M171 550l-26 44l177 101l36 -63zM210 0v201l-168 300l63 33l139 -268l138 268l63 -33l-168 -300v-201h-67z" />
<glyph unicode="&#xfe;" d="M106 0v521h67v-67h85q49 0 72.5 -5t47.5 -21q58 -39 58 -116q0 -68 -41.5 -111.5t-106.5 -43.5h-115v-157h-67zM173 217h84q58 0 84 22.5t26 71.5q0 83 -110 83h-84v-177z" />
<glyph unicode="&#xff;" d="M336 555q-21 0 -34.5 18t-13.5 45t13.5 45t34.5 18q20 0 33.5 -18t13.5 -45t-13.5 -45t-33.5 -18zM152 555q-21 0 -34.5 18t-13.5 45t13.5 45t34.5 18q20 0 33.5 -18t13.5 -45t-13.5 -45t-33.5 -18zM210 0v201l-168 300l63 33l139 -268l138 268l63 -33l-168 -300v-201 h-67z" />
<glyph unicode="&#x152;" d="M478 0h-220q-24 -8 -52 -8q-44 0 -82 21t-60 57q-48 83 -48 265q0 185 48 266q21 35 59 56.5t78 21.5q36 0 61 -12h216v-60h-158v-220h146v-60h-146v-267h158v-60zM257 73v525q-24 18 -56 18q-63 0 -89 -63.5t-26 -217.5q0 -153 26 -216.5t89 -63.5q33 0 56 18z" />
<glyph unicode="&#x153;" d="M484 0h-237q-24 -9 -58 -9q-87 0 -136 71.5t-49 198.5q0 126 49.5 197.5t135.5 71.5q34 0 58 -9h237v-60h-177v-156h145v-60h-145v-185h177v-60zM240 68v385q-22 14 -51 14q-56 0 -85.5 -53t-29.5 -153q0 -101 29.5 -154t85.5 -53q29 0 51 14z" />
<glyph unicode="&#x178;" d="M337 700q-21 0 -34.5 18t-13.5 45t13.5 45t34.5 18q20 0 33.5 -18t13.5 -45t-13.5 -45t-33.5 -18zM153 700q-21 0 -34.5 18t-13.5 45t13.5 45t34.5 18q20 0 33.5 -18t13.5 -45t-13.5 -45t-33.5 -18zM211 0v263l-173 391l62 25l145 -338l144 338l62 -25l-173 -391v-263 h-67z" />
<glyph unicode="&#x2c6;" d="M118 551l-24 36l151 102l151 -102l-24 -36l-127 62z" />
<glyph unicode="&#x2dc;" d="M129 528l-54 22q26 65 48.5 89t57.5 24q28 0 64 -26l24 -18q27 -20 42 -20q17 0 26.5 14t20.5 54l57 -17q-20 -66 -41.5 -91t-58.5 -25q-35 0 -62 21l-34 26q-23 17 -38 17q-16 0 -26 -14t-26 -56z" />
<glyph unicode="&#x2000;" horiz-adv-x="433" />
<glyph unicode="&#x2001;" horiz-adv-x="866" />
<glyph unicode="&#x2002;" horiz-adv-x="433" />
<glyph unicode="&#x2003;" horiz-adv-x="866" />
<glyph unicode="&#x2004;" horiz-adv-x="288" />
<glyph unicode="&#x2005;" horiz-adv-x="216" />
<glyph unicode="&#x2006;" horiz-adv-x="144" />
<glyph unicode="&#x2007;" horiz-adv-x="144" />
<glyph unicode="&#x2008;" horiz-adv-x="108" />
<glyph unicode="&#x2009;" horiz-adv-x="173" />
<glyph unicode="&#x200a;" horiz-adv-x="48" />
<glyph unicode="&#x2010;" d="M133 227v67h222v-67h-222z" />
<glyph unicode="&#x2011;" d="M133 227v67h222v-67h-222z" />
<glyph unicode="&#x2012;" d="M133 227v67h222v-67h-222z" />
<glyph unicode="&#x2013;" d="M22 227v67h444v-67h-444z" />
<glyph unicode="&#x2014;" d="M-56 227v67h600v-67h-600z" />
<glyph unicode="&#x2018;" d="M160 470v32q0 113 111 175l30 -50q-31 -20 -40 -43.5t-9 -81.5v-32h-92z" />
<glyph unicode="&#x2019;" d="M190 460l-30 50q31 21 40 44t9 81v32h92v-32q0 -114 -111 -175z" />
<glyph unicode="&#x201a;" d="M180 -9q31 21 40 44t9 81v32h92v-32q0 -114 -111 -175z" />
<glyph unicode="&#x201c;" d="M274 470v32q0 113 111 175l30 -50q-31 -20 -40 -43.5t-9 -81.5v-32h-92zM87 470v32q0 113 111 175l30 -50q-31 -20 -40 -43.5t-9 -81.5v-32h-92z" />
<glyph unicode="&#x201d;" d="M290 460l-30 50q31 20 40 43.5t9 81.5v32h92v-32q0 -114 -111 -175zM103 460l-30 50q31 21 40 44t9 81v32h92v-32q0 -114 -111 -175z" />
<glyph unicode="&#x201e;" d="M260 -9q31 20 40 43.5t9 81.5v32h92v-32q0 -114 -111 -175zM73 -9q31 21 40 44t9 81v32h92v-32q0 -114 -111 -175z" />
<glyph unicode="&#x2022;" d="M247 200q-58 0 -99 40.5t-41 98.5q0 57 41 97.5t99 40.5q56 0 96.5 -40.5t40.5 -97.5t-40.5 -98t-96.5 -41z" />
<glyph unicode="&#x2026;" d="M384 0v89h89v-89h-89zM199 0v89h89v-89h-89zM14 0v89h89v-89h-89z" />
<glyph unicode="&#x202f;" horiz-adv-x="173" />
<glyph unicode="&#x2039;" d="M86 330l253 240l48 -49l-205 -191l205 -192l-48 -50z" />
<glyph unicode="&#x203a;" d="M100 138l205 192l-205 191l47 49l254 -240l-254 -242z" />
<glyph unicode="&#x205f;" horiz-adv-x="216" />
<glyph unicode="&#x20ac;" d="M5 247l25 60h58v52h-83l25 60h62q26 258 197 258q53 0 88.5 -24t73.5 -85l-56 -34q-27 45 -50 62.5t-57 17.5q-106 0 -126 -195h225l-25 -60h-204v-52h183l-26 -60h-153q19 -193 125 -193q64 0 119 84l55 -38q-42 -60 -81 -84.5t-92 -24.5q-171 0 -196 256h-87z" />
<glyph unicode="&#x2122;" d="M49 333v278h-83v56h331l67 -178l64 178h82v-334h-78v216l-58 -160h-50l-52 140v-196h-56v278h-89v-278h-78z" />
<glyph unicode="&#xfb01;" d="M34 0v521h450v-60h-73v-401h73v-60h-213v60h73v401h-243v-156h152v-60h-152v-245h-67z" />
<glyph unicode="&#xfb02;" d="M21 0v521h353v-461h161v-60h-228v461h-219v-156h152v-60h-152v-245h-67z" />
</font>
</defs>
</svg>
